# xmcd
#
# Track frame offsets:
# 182
# 16352
# 31970
# 48212
# 63392
# 78740
# 91205
# 106905
# 118057
# 128592
#
# Disc length: 1953 seconds
#
# Revision: 6
# Processed by: cddbd v1.5.2PL0 Copyright (c) Steve Scherf et al.
# Submitted via: Axialis_AX_CDPlayer 2.6
#
DISCID=78079f0a
DTITLE=Aretha Franklin - Aretha Franklin :Spanish Harlem   Disc 3
DYEAR=1998
DGENRE=R&B
TTITLE0=Spanish Harlem
TTITLE1=Until You Come Back To Me (That's What I'm Gonna Do)
TTITLE2=Angel
TTITLE3=Border Song (Holy Moses)
TTITLE4=Share Your Love With Me
TTITLE5=See Saw
TTITLE6=Something He Can Feel
TTITLE7=Gentle On My Mind
TTITLE8=Jump
TTITLE9=Day Dreaming
EXTD=The Best Of Aretha                   3 CD Set 
EXTT0=
EXTT1=
EXTT2=
EXTT3=
EXTT4=
EXTT5=
EXTT6=
EXTT7=
EXTT8=
EXTT9=
PLAYORDER=
